<?xml version="1.0" standalone="no"?>
<!DOCTYPE svg PUBLIC "-//W3C//DTD SVG 20010904//EN"
 "http://www.w3.org/TR/2001/REC-SVG-20010904/DTD/svg10.dtd">
<svg version="1.0" xmlns="http://www.w3.org/2000/svg"
 width="200.000000pt" height="200.000000pt" viewBox="0 0 200.000000 200.000000"
 preserveAspectRatio="xMidYMid meet">

<g transform="translate(0.000000,200.000000) scale(0.100000,-0.100000)"
fill="#000000" stroke="none">
<path d="M0 1000 l0 -1000 285 0 c267 0 284 1 278 18 -3 9 -11 24 -18 32 -17
21 -45 97 -45 120 0 11 -4 20 -8 20 -5 0 -9 7 -9 15 0 17 -3 19 88 -52 108
-83 255 -140 352 -134 28 1 36 -2 31 -10 -5 -9 15 -10 87 -4 52 4 105 6 119 5
14 -1 208 -3 433 -6 l407 -5 0 1001 0 1000 -1000 0 -1000 0 0 -1000z m914 743
c4 -4 20 -8 35 -9 15 -1 40 -14 54 -28 15 -15 31 -25 36 -21 5 3 11 0 13 -7 6
-18 104 -17 100 1 -1 7 3 11 10 9 7 -3 15 -18 16 -33 2 -16 13 -37 24 -47 20
-17 20 -27 -4 -60 -10 -14 -9 -20 6 -31 19 -14 14 -43 -5 -32 -15 10 -10 -7 8
-27 15 -17 19 -49 12 -102 -1 -12 -21 -27 -56 -42 -29 -13 -53 -28 -53 -34 0
-5 -6 -10 -14 -10 -8 0 -17 -4 -21 -9 -3 -6 7 -6 27 -1 30 9 31 8 14 -5 -11
-8 -39 -15 -62 -15 -34 0 -44 -4 -49 -20 -3 -11 -11 -20 -16 -20 -6 0 -7 5 -4
10 10 17 -5 32 -18 18 -12 -13 -38 -100 -32 -106 12 -12 25 15 25 50 0 33 2
38 14 29 8 -6 18 -11 22 -9 5 1 19 -3 30 -10 19 -10 21 -19 18 -69 -2 -32 -6
-75 -9 -96 -3 -21 0 -48 6 -60 10 -18 8 -25 -24 -52 -30 -26 -33 -33 -22 -48
7 -9 19 -17 27 -17 9 0 21 -13 28 -29 6 -16 21 -32 33 -35 40 -11 -3 -26 -75
-26 -37 0 -70 -5 -74 -11 -4 -6 -22 -9 -43 -6 -111 16 -132 20 -137 28 -6 11
-44 12 -44 1 0 -9 178 -52 218 -52 41 0 140 -22 125 -27 -8 -3 -4 -13 12 -27
14 -14 25 -34 25 -50 0 -15 8 -31 20 -38 11 -7 20 -22 20 -33 0 -14 -3 -16 -9
-7 -5 8 -17 11 -33 7 -15 -4 -29 -2 -33 4 -14 24 -22 -1 -13 -43 8 -37 6 -51
-11 -84 -19 -37 -24 -40 -63 -41 -24 0 -55 -2 -70 -4 -16 -2 -33 2 -39 9 -6 7
-17 10 -24 8 -7 -3 -23 -1 -34 6 -17 9 -21 8 -21 -5 0 -8 5 -15 10 -15 6 0 23
-11 38 -25 15 -14 37 -25 49 -25 12 0 24 -4 27 -9 3 -5 26 -14 51 -20 46 -11
62 -31 25 -31 -11 0 -20 -5 -20 -11 0 -5 4 -7 10 -4 6 3 10 3 10 0 0 -10 -27
-35 -38 -35 -5 0 -18 -11 -28 -25 -17 -22 -53 -37 -40 -17 3 4 -25 8 -60 9
-36 0 -70 5 -76 11 -6 6 -16 8 -23 6 -7 -3 -16 -1 -20 5 -3 6 -15 11 -26 11
-11 0 -17 -4 -14 -10 3 -5 -1 -10 -9 -10 -8 0 -17 4 -20 9 -4 5 -26 19 -50 31
-53 25 -86 57 -137 131 -77 114 -85 168 -68 464 4 61 3 99 -1 85 -4 -14 -8
-40 -9 -58 -1 -35 -27 -55 -42 -31 -13 21 -11 34 11 59 24 27 25 65 5 140 -20
75 -20 174 1 194 22 22 37 20 66 -9 l24 -24 27 24 c14 14 33 25 41 25 25 0 46
12 46 26 0 9 -11 14 -30 14 -30 0 -30 0 -26 48 2 26 6 54 9 62 17 56 29 111
31 147 3 47 68 152 99 161 9 2 17 8 17 12 0 4 21 11 48 15 26 4 52 10 57 15 6
4 40 7 78 6 37 0 67 2 67 7 0 9 14 9 24 0z m-487 -479 c-3 -3 -12 -4 -19 -1
-8 3 -5 6 6 6 11 1 17 -2 13 -5z m826 -11 c-7 -2 -19 -2 -25 0 -7 3 -2 5 12 5
14 0 19 -2 13 -5z m-55 -180 c18 -4 20 -8 10 -14 -10 -7 -9 -9 4 -9 9 0 20 -4
23 -10 4 -6 -5 -10 -19 -10 -14 0 -26 5 -26 11 0 7 -8 18 -17 25 -20 15 -11
17 25 7z m52 -81 c74 -8 90 -25 90 -99 0 -23 4 -44 9 -47 9 -6 20 -65 23 -126
1 -19 -6 -51 -15 -70 -9 -19 -22 -52 -31 -72 -11 -29 -20 -37 -38 -35 -28 1
-38 14 -38 48 0 16 -7 30 -17 33 -15 6 -15 8 -3 16 10 7 11 10 3 10 -19 0 -15
32 8 59 19 23 20 23 33 6 13 -18 14 -18 24 2 14 25 5 61 -21 91 -23 25 -42 29
-33 7 4 -11 -1 -15 -18 -15 -33 0 -47 21 -40 58 4 22 0 41 -13 64 -11 19 -23
46 -27 61 -6 25 -4 27 16 22 13 -3 52 -9 88 -13z m10 -212 c0 -5 -2 -10 -4
-10 -3 0 -8 5 -11 10 -3 6 -1 10 4 10 6 0 11 -4 11 -10z m-73 -226 c-3 -3 -12
-4 -19 -1 -8 3 -5 6 6 6 11 1 17 -2 13 -5z m-633 -351 c8 -19 2 -16 -25 13
-23 25 -23 26 -2 13 13 -7 25 -19 27 -26z m61 -24 c11 -17 -1 -21 -15 -4 -8 9
-8 15 -2 15 6 0 14 -5 17 -11z"/>
<path d="M1160 1480 c0 -5 5 -10 10 -10 6 0 10 5 10 10 0 6 -4 10 -10 10 -5 0
-10 -4 -10 -10z"/>
<path d="M700 1333 c-14 -3 -36 -13 -50 -23 -14 -9 -35 -20 -47 -24 -24 -8
-34 -26 -39 -76 -2 -22 -1 -28 4 -15 12 33 25 49 54 64 15 8 25 18 23 22 -17
27 158 21 183 -6 4 -4 -2 -6 -13 -3 -11 3 -26 -1 -33 -9 -10 -10 -10 -13 3
-13 8 0 15 -5 15 -11 0 -8 13 -9 41 -5 27 4 47 2 57 -6 13 -11 14 -11 8 0 -6
10 -1 11 21 6 25 -7 27 -6 15 9 -8 9 -22 19 -32 22 -11 3 -17 12 -14 19 5 14
-69 32 -113 27 -17 -2 -21 2 -17 13 6 17 -11 19 -66 9z"/>
<path d="M680 1260 c0 -5 5 -10 11 -10 5 0 7 5 4 10 -3 6 -8 10 -11 10 -2 0
-4 -4 -4 -10z"/>
<path d="M730 1206 c-73 -14 -130 -41 -130 -61 0 -18 31 -28 44 -14 8 9 8 10
-1 5 -7 -4 -13 -2 -13 5 0 8 21 10 78 6 42 -4 78 -6 80 -7 1 0 2 -4 2 -10 0
-5 -3 -9 -7 -9 -5 1 -19 1 -33 0 -22 -1 -23 -3 -7 -12 10 -6 36 -8 60 -4 66
10 79 16 73 31 -3 8 1 14 9 14 21 0 19 44 -2 61 -16 13 -17 12 -5 -3 12 -14
11 -16 -8 -11 -11 3 -23 9 -26 14 -7 11 -33 10 -114 -5z"/>
<path d="M340 1158 l1 -33 19 24 c21 24 19 41 -6 41 -9 0 -14 -11 -14 -32z"/>
<path d="M437 1167 c-4 -10 -7 -28 -6 -40 0 -21 1 -21 10 2 5 14 8 32 7 40 -3
13 -5 13 -11 -2z"/>
<path d="M406 1045 c-9 -26 -7 -32 5 -12 6 10 9 21 6 23 -2 3 -7 -2 -11 -11z"/>
<path d="M800 933 c-35 -12 -140 -90 -147 -108 -12 -35 -12 -48 1 -66 11 -17
13 -15 25 17 8 23 36 53 82 90 77 61 91 85 39 67z"/>
<path d="M897 893 c-16 -15 -5 -25 21 -18 41 10 51 25 16 25 -17 0 -34 -3 -37
-7z"/>
</g>
</svg>
